HIERARCHY
ROOT hip
{
  OFFSET 0 0 0
  CHANNELS 6 Xposition Yposition Zposition Zrotation Yrotation Xrotation
  JOINT abdomen
  {
    OFFSET 0 20.6881 -0.73152
    CHANNELS 3 Zrotation Xrotation Yrotation
    JOINT chest
    {
      OFFSET 0 11.7043 -0.48768
      CHANNELS 3 Zrotation Xrotation Yrotation
      JOINT neck
      {
        OFFSET 0 22.1894 -2.19456
        CHANNELS 3 Zrotation Xrotation Yrotation
        JOINT head
        {
          OFFSET -0.24384 7.07133 1.2192
          CHANNELS 3 Zrotation Xrotation Yrotation
          JOINT leftEye
          {
            OFFSET 4.14528 8.04674 8.04672
            CHANNELS 3 Zrotation Xrotation Yrotation
            End Site
            {
              OFFSET 1 0 0
            }
          }
          JOINT rightEye
          {
            OFFSET -3.6576 8.04674 8.04672
            CHANNELS 3 Zrotation Xrotation Yrotation
            End Site
            {
              OFFSET 1 0 0
            }
          }
        }
      }
      JOINT rCollar
      {
        OFFSET -2.68224 19.2634 -4.8768
        CHANNELS 3 Zrotation Xrotation Yrotation
        JOINT rShldr
        {
          OFFSET -8.77824 -1.95073 1.46304
          CHANNELS 3 Zrotation Xrotation Yrotation
          JOINT rForeArm
          {
            OFFSET -28.1742 -1.7115 0.48768
            CHANNELS 3 Zrotation Xrotation Yrotation
            JOINT rHand
            {
              OFFSET -22.5879 0.773209 7.07136
              CHANNELS 3 Zrotation Xrotation Yrotation
              JOINT rThumb1
              {
                OFFSET -1.2192 -0.487915 3.41376
                CHANNELS 3 Zrotation Xrotation Yrotation
                JOINT rThumb2
                {
                  OFFSET -3.37035 -0.52449 3.41376
                  CHANNELS 3 Zrotation Xrotation Yrotation
                  End Site
                  {
                    OFFSET -1.78271 -1.18214 1.43049
                  }
                }
              }
              JOINT rIndex1
              {
                OFFSET -7.75947 0.938293 5.60832
                CHANNELS 3 Zrotation Xrotation Yrotation
                JOINT rIndex2
                {
                  OFFSET -2.54057 -0.884171 1.56538
                  CHANNELS 3 Zrotation Xrotation Yrotation
                  End Site
                  {
                    OFFSET -1.62519 -0.234802 1.16502
                  }
                }
              }
              JOINT rMid1
              {
                OFFSET -8.24714 1.18213 3.41376
                CHANNELS 3 Zrotation Xrotation Yrotation
                JOINT rMid2
                {
                  OFFSET -3.10165 -0.590103 1.0647
                  CHANNELS 3 Zrotation Xrotation Yrotation
                  End Site
                  {
                    OFFSET -2.48547 -0.328903 0.83742
                  }
                }
              }
              JOINT rRing1
              {
                OFFSET -8.82822 0.546677 1.51678
                CHANNELS 3 Zrotation Xrotation Yrotation
                JOINT rRing2
                {
                  OFFSET -2.60934 -0.819778 -0.0198488
                  CHANNELS 3 Zrotation Xrotation Yrotation
                  End Site
                  {
                    OFFSET -2.33842 -0.294052 0.168128
                  }
                }
              }
              JOINT rPinky1
              {
                OFFSET -8.27202 -0.0477905 -0.4584
                CHANNELS 3 Zrotation Xrotation Yrotation
                JOINT rPinky2
                {
                  OFFSET -1.82734 -0.647385 -0.700984
                  CHANNELS 3 Zrotation Xrotation Yrotation
                  End Site
                  {
                    OFFSET -1.69225 -0.51767 -0.607171
                  }
                }
              }
            }
          }
        }
      }
      JOINT lCollar
      {
        OFFSET 2.68224 19.2634 -4.8768
        CHANNELS 3 Zrotation Xrotation Yrotation
        JOINT lShldr
        {
          OFFSET 8.77824 -1.95073 1.46304
          CHANNELS 3 Zrotation Xrotation Yrotation
          JOINT lForeArm
          {
            OFFSET 28.1742 -1.7115 0.48768
            CHANNELS 3 Zrotation Xrotation Yrotation
            JOINT lHand
            {
              OFFSET 22.5879 0.773209 7.07136
              CHANNELS 3 Zrotation Xrotation Yrotation
              JOINT lThumb1
              {
                OFFSET 1.2192 -0.487915 3.41376
                CHANNELS 3 Zrotation Xrotation Yrotation
                JOINT lThumb2
                {
                  OFFSET 3.37035 -0.52449 3.41376
                  CHANNELS 3 Zrotation Xrotation Yrotation
                  End Site
                  {
                    OFFSET 1.78271 -1.18214 1.43049
                  }
                }
              }
              JOINT lIndex1
              {
                OFFSET 7.75947 0.938293 5.60832
                CHANNELS 3 Zrotation Xrotation Yrotation
                JOINT lIndex2
                {
                  OFFSET 2.54057 -0.884171 1.56538
                  CHANNELS 3 Zrotation Xrotation Yrotation
                  End Site
                  {
                    OFFSET 1.62519 -0.234802 1.16502
                  }
                }
              }
              JOINT lMid1
              {
                OFFSET 8.24714 1.18213 3.41376
                CHANNELS 3 Zrotation Xrotation Yrotation
                JOINT lMid2
                {
                  OFFSET 3.10165 -0.590103 1.0647
                  CHANNELS 3 Zrotation Xrotation Yrotation
                  End Site
                  {
                    OFFSET 2.48547 -0.328903 0.83742
                  }
                }
              }
              JOINT lRing1
              {
                OFFSET 8.82822 0.546677 1.51678
                CHANNELS 3 Zrotation Xrotation Yrotation
                JOINT lRing2
                {
                  OFFSET 2.60934 -0.819778 -0.0198488
                  CHANNELS 3 Zrotation Xrotation Yrotation
                  End Site
                  {
                    OFFSET 2.33842 -0.294052 0.168128
                  }
                }
              }
              JOINT lPinky1
              {
                OFFSET 8.27202 -0.0477905 -0.4584
                CHANNELS 3 Zrotation Xrotation Yrotation
                JOINT lPinky2
                {
                  OFFSET 1.82734 -0.647385 -0.700984
                  CHANNELS 3 Zrotation Xrotation Yrotation
                  End Site
                  {
                    OFFSET 1.69225 -0.51767 -0.607171
                  }
                }
              }
            }
          }
        }
      }
    }
  }
  JOINT rButtock
  {
    OFFSET -8.77824 4.35084 1.2192
    CHANNELS 3 Zrotation Xrotation Yrotation
    JOINT rThigh
    {
      OFFSET 0 -1.70687 -2.19456
      CHANNELS 3 Zrotation Xrotation Yrotation
      JOINT rShin
      {
        OFFSET 0 -36.8199 0.73152
        CHANNELS 3 Zrotation Xrotation Yrotation
        JOINT rFoot
        {
          OFFSET 0.73152 -45.1104 -5.12064
          CHANNELS 3 Zrotation Xrotation Yrotation
          End Site
          {
            OFFSET -1.1221 -3.69964 12.103
          }
        }
      }
    }
  }
  JOINT lButtock
  {
    OFFSET 8.77824 4.35084 1.2192
    CHANNELS 3 Zrotation Xrotation Yrotation
    JOINT lThigh
    {
      OFFSET 0 -1.70687 -2.19456
      CHANNELS 3 Zrotation Xrotation Yrotation
      JOINT lShin
      {
        OFFSET 0 -36.8199 0.73152
        CHANNELS 3 Zrotation Xrotation Yrotation
        JOINT lFoot
        {
          OFFSET -0.73152 -45.1104 -5.12064
          CHANNELS 3 Zrotation Xrotation Yrotation
          End Site
          {
            OFFSET 1.1221 -3.69964 12.103
          }
        }
      }
    }
  }
}
MOTION
Frames:	7
Frame Time:	0.00833333
0.0 0.0 0.0 0.0 0.0 0.0 0.0 0.0 0.0 0.0 0.0 0.0 0.0 0.0 0.0 0.0 0.0 0.0 0.0 0.0 0.0 0.0 0.0 0.0 0.0 0.0 0.0 0.0 0.0 0.0 0.0 0.0 0.0 0.0 0.0 0.0 0.0 0.0 0.0 0.0 0.0 0.0 0.0 0.0 0.0 0.0 0.0 0.0 0.0 0.0 0.0 0.0 0.0 0.0 0.0 0.0 0.0 0.0 0.0 0.0 0.0 0.0 0.0 0.0 0.0 0.0 0.0 0.0 0.0 0.0 0.0 0.0 0.0 0.0 0.0 0.0 0.0 0.0 0.0 0.0 0.0 0.0 0.0 0.0 0.0 0.0 0.0 0.0 0.0 0.0 0.0 0.0 0.0 0.0 0.0 0.0 0.0 0.0 0.0 0.0 0.0 0.0 0.0 0.0 0.0 0.0 0.0 0.0 0.0 0.0 0.0 0.0 0.0 0.0 0.0 0.0 0.0 0.0 0.0 0.0 0.0 0.0 0.0 0.0 0.0 0.0 0.0 0.0 0.0 0.0 0.0 0.0
91.7433 83.8315 -3.0218 26.510817 -73.776372 -20.972067 0.007169 -7.148539 -163.174535 -2.040779 -3.350127 168.834347 -8.581219 15.753606 -88.073506 17.367585 7.158591 102.597209 -0.000615 0.0 -0.002112 -0.000786 -0.0 0.002587 1.990248 -14.052843 -2.881846 22.389444 13.921675 -6.344623 -10.017615 1.498984 6.981301 3.226289 -12.188728 0.319139 -93.743906 37.964378 53.548504 -129.944354 -18.791998 76.714607 -152.106007 -18.556275 121.367936 -174.764761 -40.184325 116.346343 -0.058172 0.167823 0.031712 -173.434857 -34.990191 143.837861 -0.013964 -1.323186 -0.415674 -155.953785 -12.558786 173.349393 -133.876232 -15.63888 -131.333608 -145.641794 7.777854 -140.891301 155.548534 -3.804246 -161.899991 -112.218692 -73.452585 -114.719182 19.723232 0.976404 26.51854 -74.218578 -69.088401 -60.070981 93.743852 37.963646 -53.548367 91.519524 -5.404376 -63.569243 140.684023 1.50613 -116.183946 -82.113126 -68.91842 -32.204213 0.057272 0.167969 -0.03175 25.388433 49.363594 -20.853443 0.015918 -1.323064 0.416417 156.365006 -42.787653 -177.032624 -34.786896 84.366416 -3.83234 -68.975435 85.05399 31.757455 -179.993085 75.750752 -0.004732 179.199338 67.653375 0.0 7.98376 18.292562 102.356061 -114.720616 -42.016689 159.81667 179.983603 75.748549 0.011219 178.085802 66.985219 -180.0 7.696087 -14.801991 88.911806 145.829311 61.142244 -75.033751
91.7323 83.8175 -3.2624 22.691956 -74.064131 -16.906385 -1.583351 -5.128121 -17.184217 2.931657 -0.581374 28.987519 -6.095758 10.269701 -26.404537 11.378023 -8.298885 58.022909 -0.000687 0.0 -0.003673 -0.000527 0.0 -0.00055 -0.048918 0.292363 0.065368 51.586022 13.053439 -6.610087 174.057374 45.492196 130.520523 174.061474 -10.874597 144.082314 -87.917785 38.51475 49.43642 -127.867704 -19.086608 78.032944 10.116481 -17.871226 -4.534042 18.535226 -7.145575 -1.805156 -8.361656 20.767855 5.605048 -17.887345 42.27976 14.420425 -75.672694 -72.117372 -92.828541 -7.15032 -74.029144 -32.317129 -0.344163 -0.890369 -0.318045 2.519135 0.043456 0.028779 155.614182 -4.23646 -161.990833 41.343572 15.643608 -15.883007 21.910251 -70.693219 77.317617 -153.411807 -44.917091 -134.459018 178.51888 -16.064421 -89.475987 49.372868 -12.127376 -6.238519 -5.772491 -9.909165 2.904091 165.349716 -20.761904 -109.847181 160.672543 -6.667835 -143.245619 172.30897 -31.361587 -143.656025 145.113527 -0.383623 179.007187 73.665692 -78.002306 95.219772 -6.2304 18.78924 -5.572936 -14.873925 44.054907 -8.635947 -179.994997 75.749301 -0.003423 175.475622 62.926737 -169.663991 -11.901833 -28.203461 -64.811593 -81.449017 -16.834074 -161.816974 -179.999398 75.749301 -0.0 175.120802 62.125082 -177.318206 -6.050369 -21.756417 -127.464073 62.874028 -74.639544 -33.752211
91.7333 83.8099 -3.4983 18.863952 -74.258559 -12.800032 -2.493127 -7.340063 -18.819426 4.426045 -0.338461 36.006925 4.640637 29.854722 156.139572 -12.052193 29.594239 -109.028583 -0.002694 -0.0 0.002997 0.002934 0.0 0.001923 -147.671393 29.084925 152.475928 149.526633 13.490112 126.551564 -16.079661 0.725722 27.642727 0.678131 -8.884182 -0.842704 -7.351461 7.062075 1.570838 -155.244742 -62.405249 113.125011 60.461669 -70.523645 15.710516 -61.192497 53.22113 50.647217 12.027651 -37.299479 -3.219408 -1.440143 12.614604 2.209028 -145.099542 -1.521861 -178.649499 11.572056 17.989491 -6.909527 -152.202265 37.329784 -147.582529 12.689822 32.276328 5.026105 85.537264 68.18195 -88.68891 -82.562941 -12.797793 -79.021883 -1.087453 -49.973818 -28.093495 6.743612 31.147585 -2.092086 78.031282 38.689093 -42.412202 148.247271 -32.040659 -83.101893 16.400604 21.46499 -11.217409 -9.375505 -0.563308 0.955065 142.380873 33.885667 -130.260405 172.139905 -31.381675 -143.720976 0.02252 -1.725506 0.543068 108.057104 76.263015 -121.803645 46.801491 -48.624182 45.560328 -3.360788 -0.029692 0.582352 4.8e-05 0.001389 -6.2e-05 -4.263285 -14.806493 163.737932 14.350602 -32.622138 92.231614 29.038718 15.319174 82.578397 179.999267 75.749283 -0.0 173.486439 57.782277 -159.746433 -3.409584 -33.187125 68.846115 34.586943 48.63408 57.243017
91.7153 83.8031 -3.7131 15.049601 -74.319435 -8.75411 -3.471382 -13.486094 -180.0 -5.70052 -2.694878 -159.635452 1.090305 14.654231 34.295622 -5.318352 -14.740872 19.626945 -0.000748 0.0 -0.001993 -0.0008 0.0 -0.001912 -155.808991 -5.555137 162.267743 -76.531009 3.609008 12.344944 -127.774248 7.188064 177.837803 17.86365 -48.629502 7.535677 4.417222 -4.400494 -0.51214 -6.348654 6.544458 2.520513 -150.886064 -16.291096 120.979127 4.312791 13.359284 -7.281359 -161.153709 -8.160821 143.464314 -170.286879 -25.741421 143.88447 -31.709288 -66.109622 -46.281407 -72.818611 82.060696 90.4488 -23.392066 -36.349941 -22.491534 -158.224049 52.572479 -149.507042 155.577947 -3.999997 -161.939824 -152.320126 76.492376 -132.791483 5.904207 42.967957 -42.365635 5.483621 29.548372 -2.154822 12.925935 12.051638 -3.310684 140.977854 -44.809746 -111.626264 -11.981531 -21.346839 5.060893 64.261544 49.138579 -51.358988 -68.984189 -80.153886 -40.576745 86.04804 64.057629 -77.697776 145.118411 0.184905 179.18775 76.143716 -77.983543 97.663094 154.161762 45.105421 148.910753 -55.510825 82.461779 18.833823 0.002169 0.001572 0.001085 -4.965584 -16.285956 -180.0 -8.887984 -41.41769 -28.993131 -101.886797 20.16935 -152.966566 0.009424 0.000237 0.009424 -4.739539 -18.618989 -14.557183 0.708892 39.107292 104.80375 -38.073366 -20.231442 -121.773915
91.6913 83.7838 -4.123600000000001 7.454537 -74.159929 -0.854894 -1.577709 -9.731807 -31.028122 4.574444 0.512906 53.200035 5.420545 30.339394 134.187246 -23.211582 19.512952 -71.853787 -0.003522 -0.0 0.001411 0.002158 0.0 0.000989 -142.973758 39.431781 147.39044 20.970116 -32.998543 100.795434 -164.418445 -42.114314 -134.148213 -4.174972 4.822032 -1.119797 -78.030441 38.689682 42.412719 -128.307263 -21.234092 81.267926 -6.242885 9.398946 3.862391 179.138863 -36.27119 105.55269 23.903442 -61.333902 1.39864 2.770355 0.811784 0.197471 -0.022788 -1.80622 -0.570059 9.226619 14.191593 1.88349 -157.330231 57.246513 -150.511249 14.437759 39.31954 6.099808 155.613862 -4.236482 -161.99085 -104.644394 7.211203 -173.934818 -65.200537 -44.941217 -82.217264 69.5395 77.432775 -54.024694 7.758516 7.439129 -1.681876 -46.262674 -60.751564 10.880344 123.869472 22.787591 -104.454837 4.141351 19.624511 3.21774 -68.984553 -80.153787 -40.578535 0.874475 10.861085 -1.986471 -0.001383 -0.018496 0.005957 149.980315 38.866576 -164.833693 148.747272 24.216162 144.891441 147.550975 11.002124 141.550193 -0.000162 0.000101 0.000208 -4.527131 -14.560179 -17.481983 -15.936103 32.463363 -62.633178 -160.165552 -35.840335 -51.394636 -179.976722 75.749893 -0.015927 171.66989 55.364601 6.77544 -0.70104 33.834267 -40.545174 33.774172 -7.00677 19.192536
91.6393 83.7859 -4.0995 7.357588 -74.262968 -0.828273 -1.670119 -9.506269 -0.344557 4.313218 -2.545525 21.909029 4.433862 31.57614 144.528475 -21.712827 23.04285 -81.440382 0.00025 -0.0 -0.001205 0.00025 -0.0 -0.001205 -143.620844 38.233807 148.081545 84.911386 -6.393781 121.902349 125.192992 -2.695465 154.624341 -141.238892 63.651086 117.780647 -103.199167 36.332081 60.112215 -156.942231 -28.238838 77.990234 -46.208793 39.652587 36.318507 -156.110063 1.821629 111.004608 -160.937755 -7.487816 143.368983 -163.295314 -4.785076 142.967673 -0.014303 -1.323001 -0.416867 -156.070267 -15.22208 173.653706 -167.314289 79.513435 -148.593244 -26.02817 -40.508127 -26.165078 155.097466 -0.940909 -161.282659 -65.881555 -81.455917 -142.677123 10.42597 43.199169 61.322882 -150.076136 -45.761971 -133.307604 -83.254271 -50.258766 -33.615188 159.473521 -29.294118 -127.849538 14.228819 19.203274 -9.559997 99.842661 44.977182 -76.675388 -78.53897 -80.91816 -49.689226 13.696631 36.318098 -10.850949 145.119004 0.185677 179.186023 -11.798901 26.290104 6.005127 0.345097 -0.890074 0.318789 -53.387182 84.959872 15.44737 -0.002393 0.001721 -0.001197 -3.991219 -16.619823 -180.0 -11.958286 -34.99581 -99.117729 -113.022874 -46.174532 -178.487159 -0.002393 0.001721 -0.001197 -4.953769 -20.558042 36.123957 22.592038 27.761258 -96.854671 68.895358 17.357158 12.745721
